<svg xmlns="http://www.w3.org/2000/svg" width="300" height="132.347" viewBox="0 0 300 132.347">
  <g id="Group_2" data-name="Group 2" transform="translate(-381.434 -664.467)">
    <path id="Path_47" data-name="Path 47" d="M48.123-82.894h12.8a24.231,24.231,0,0,0-2.863-9.262,22.524,22.524,0,0,0-5.768-6.778,25.415,25.415,0,0,0-7.915-4.168,30.29,30.29,0,0,0-9.388-1.431,30.365,30.365,0,0,0-12.419,2.442,26.564,26.564,0,0,0-9.3,6.736,30.035,30.035,0,0,0-5.81,10.062,37.564,37.564,0,0,0-2.021,12.5A36.309,36.309,0,0,0,7.455-60.539a29.259,29.259,0,0,0,5.81,9.893,26.612,26.612,0,0,0,9.3,6.61,30.827,30.827,0,0,0,12.419,2.4,29.615,29.615,0,0,0,10.188-1.684A23.621,23.621,0,0,0,53.259-48.2a24.4,24.4,0,0,0,5.557-7.746,30.562,30.562,0,0,0,2.61-10.188h-12.8a17.133,17.133,0,0,1-4.168,9.767q-3.41,3.7-9.472,3.7a15.432,15.432,0,0,1-7.578-1.726,14.457,14.457,0,0,1-5.052-4.589,19.91,19.91,0,0,1-2.821-6.441,30.6,30.6,0,0,1-.884-7.367,32.9,32.9,0,0,1,.884-7.662,20.292,20.292,0,0,1,2.821-6.61,14.308,14.308,0,0,1,5.052-4.631,15.432,15.432,0,0,1,7.578-1.726,13.742,13.742,0,0,1,4.673.8,13.591,13.591,0,0,1,4,2.231,13.288,13.288,0,0,1,2.947,3.326A10.8,10.8,0,0,1,48.123-82.894ZM69.172-103.1v60.118H81.129V-65.8q0-6.652,2.189-9.557t7.073-2.9q4.294,0,5.978,2.652t1.684,8.041v24.586h11.956V-69.759a35.085,35.085,0,0,0-.716-7.367,14.011,14.011,0,0,0-2.484-5.641,11.672,11.672,0,0,0-4.841-3.621A20.306,20.306,0,0,0,94.1-87.693a15.68,15.68,0,0,0-6.9,1.726,13.845,13.845,0,0,0-5.81,5.515h-.253V-103.1ZM118.6-73.127a13.888,13.888,0,0,1,2.1-6.988,14.334,14.334,0,0,1,4.715-4.463,20.547,20.547,0,0,1,6.441-2.4,36.621,36.621,0,0,1,7.2-.716,48.788,48.788,0,0,1,6.652.463,20.348,20.348,0,0,1,6.146,1.81,12.111,12.111,0,0,1,4.547,3.747,10.47,10.47,0,0,1,1.768,6.357v22.649a45.49,45.49,0,0,0,.337,5.641,10.2,10.2,0,0,0,1.179,4.042H147.561a17.16,17.16,0,0,1-.547-2.063,17.963,17.963,0,0,1-.295-2.147,15.58,15.58,0,0,1-6.736,4.126,27.036,27.036,0,0,1-7.915,1.179,21.383,21.383,0,0,1-5.81-.758A13.305,13.305,0,0,1,121.544-45a10.974,10.974,0,0,1-3.157-4.042,13.665,13.665,0,0,1-1.137-5.81,12.692,12.692,0,0,1,1.305-6.1,10.912,10.912,0,0,1,3.368-3.831,15.09,15.09,0,0,1,4.715-2.147,50.332,50.332,0,0,1,5.347-1.137q2.694-.421,5.3-.674a31.9,31.9,0,0,0,4.631-.758,8.073,8.073,0,0,0,3.2-1.473,3.234,3.234,0,0,0,1.095-2.821,6.344,6.344,0,0,0-.631-3.073,4.644,4.644,0,0,0-1.684-1.768,6.624,6.624,0,0,0-2.442-.842,19.98,19.98,0,0,0-2.989-.21,9.075,9.075,0,0,0-5.557,1.516q-2.021,1.516-2.358,5.052Zm27.617,8.841a5.363,5.363,0,0,1-1.894,1.052,19.351,19.351,0,0,1-2.442.632q-1.305.253-2.736.421t-2.863.421a21.594,21.594,0,0,0-2.652.674,7.841,7.841,0,0,0-2.273,1.137,5.4,5.4,0,0,0-1.558,1.81,5.824,5.824,0,0,0-.589,2.779,5.624,5.624,0,0,0,.589,2.694,4.519,4.519,0,0,0,1.6,1.726,6.752,6.752,0,0,0,2.358.884,15.048,15.048,0,0,0,2.779.253A10.569,10.569,0,0,0,142-50.983a7.884,7.884,0,0,0,2.863-2.821A9.02,9.02,0,0,0,146-57.129a22.843,22.843,0,0,0,.211-2.694Zm41.51,11.03a8.468,8.468,0,0,1-4.631-1.179,9.345,9.345,0,0,1-2.989-3.031,12.631,12.631,0,0,1-1.6-4.168,23.771,23.771,0,0,1-.463-4.673,19.551,19.551,0,0,1,.547-4.673,11.538,11.538,0,0,1,1.768-3.957,9.119,9.119,0,0,1,3.031-2.736,8.766,8.766,0,0,1,4.336-1.01,9.824,9.824,0,0,1,4.884,1.095,8.717,8.717,0,0,1,3.115,2.947,12.727,12.727,0,0,1,1.684,4.252,24.689,24.689,0,0,1,.505,5.094,15.883,15.883,0,0,1-.632,4.5,11.934,11.934,0,0,1-1.894,3.831,9.335,9.335,0,0,1-3.2,2.694A9.509,9.509,0,0,1,187.724-53.256Zm21.555,7.494V-86.514H197.912v5.81h-.168a13,13,0,0,0-5.431-5.389,16.828,16.828,0,0,0-7.536-1.6,17.572,17.572,0,0,0-8.041,1.768,17.293,17.293,0,0,0-5.852,4.757,21.237,21.237,0,0,0-3.578,6.9,27.135,27.135,0,0,0-1.221,8.125,33.129,33.129,0,0,0,1.052,8.462,19.672,19.672,0,0,0,3.326,6.988,15.976,15.976,0,0,0,5.81,4.715,19.018,19.018,0,0,0,8.42,1.726,17.863,17.863,0,0,0,7.536-1.642,11.837,11.837,0,0,0,5.515-5.094h.168v5.726a11.886,11.886,0,0,1-2.231,7.662q-2.315,3.031-7.367,3.031a11.787,11.787,0,0,1-5.641-1.305,6.822,6.822,0,0,1-3.284-4.673H167.517a12.571,12.571,0,0,0,2.063,6.357,14.9,14.9,0,0,0,4.547,4.336,20.729,20.729,0,0,0,6.062,2.484,27.846,27.846,0,0,0,6.525.8q7.494,0,11.956-2.021a18.311,18.311,0,0,0,6.82-4.926,14.74,14.74,0,0,0,3.073-6.273A29.145,29.145,0,0,0,209.279-45.762Zm9.093-27.365a13.888,13.888,0,0,1,2.1-6.988,14.334,14.334,0,0,1,4.715-4.463,20.547,20.547,0,0,1,6.441-2.4,36.621,36.621,0,0,1,7.2-.716,48.788,48.788,0,0,1,6.652.463,20.347,20.347,0,0,1,6.146,1.81,12.111,12.111,0,0,1,4.547,3.747,10.47,10.47,0,0,1,1.768,6.357v22.649a45.49,45.49,0,0,0,.337,5.641,10.2,10.2,0,0,0,1.179,4.042H247.337a17.16,17.16,0,0,1-.547-2.063,17.966,17.966,0,0,1-.295-2.147,15.58,15.58,0,0,1-6.736,4.126,27.036,27.036,0,0,1-7.915,1.179,21.383,21.383,0,0,1-5.81-.758A13.305,13.305,0,0,1,221.319-45a10.975,10.975,0,0,1-3.157-4.042,13.664,13.664,0,0,1-1.137-5.81,12.692,12.692,0,0,1,1.305-6.1,10.912,10.912,0,0,1,3.368-3.831,15.09,15.09,0,0,1,4.715-2.147,50.333,50.333,0,0,1,5.347-1.137q2.694-.421,5.3-.674a31.9,31.9,0,0,0,4.631-.758,8.073,8.073,0,0,0,3.2-1.473A3.234,3.234,0,0,0,245.99-73.8a6.344,6.344,0,0,0-.631-3.073,4.644,4.644,0,0,0-1.684-1.768,6.624,6.624,0,0,0-2.442-.842,19.98,19.98,0,0,0-2.989-.21,9.075,9.075,0,0,0-5.557,1.516q-2.021,1.516-2.358,5.052Zm27.617,8.841a5.363,5.363,0,0,1-1.894,1.052,19.352,19.352,0,0,1-2.442.632q-1.305.253-2.736.421t-2.863.421a21.593,21.593,0,0,0-2.652.674,7.842,7.842,0,0,0-2.273,1.137,5.4,5.4,0,0,0-1.558,1.81,5.824,5.824,0,0,0-.589,2.779,5.624,5.624,0,0,0,.589,2.694,4.518,4.518,0,0,0,1.6,1.726,6.752,6.752,0,0,0,2.358.884,15.048,15.048,0,0,0,2.779.253,10.569,10.569,0,0,0,5.473-1.179,7.884,7.884,0,0,0,2.863-2.821,9.02,9.02,0,0,0,1.137-3.326,22.846,22.846,0,0,0,.21-2.694Zm30.48,7.157H265.1a14.638,14.638,0,0,0,1.979,7.283,14.448,14.448,0,0,0,4.631,4.673,19.557,19.557,0,0,0,6.441,2.526,36.072,36.072,0,0,0,7.409.758,37.046,37.046,0,0,0,7.283-.716,18.465,18.465,0,0,0,6.357-2.484,13.812,13.812,0,0,0,4.5-4.673,13.881,13.881,0,0,0,1.726-7.2,10.132,10.132,0,0,0-1.179-5.094,10.791,10.791,0,0,0-3.115-3.452,16.757,16.757,0,0,0-4.42-2.231,50.511,50.511,0,0,0-5.094-1.431q-2.526-.589-4.968-1.095a38.418,38.418,0,0,1-4.336-1.137,9.087,9.087,0,0,1-3.073-1.642,3.279,3.279,0,0,1-1.179-2.61,3.225,3.225,0,0,1,.674-2.147,4.421,4.421,0,0,1,1.642-1.221,7.308,7.308,0,0,1,2.147-.547,20.637,20.637,0,0,1,2.189-.126,11.932,11.932,0,0,1,5.557,1.221q2.358,1.221,2.61,4.673h11.367a14.283,14.283,0,0,0-2.063-6.694,13.626,13.626,0,0,0-4.336-4.252,18.151,18.151,0,0,0-5.936-2.273,34.487,34.487,0,0,0-6.862-.674,37.387,37.387,0,0,0-6.9.631,19.012,19.012,0,0,0-6.062,2.189,12.1,12.1,0,0,0-4.336,4.252,13.1,13.1,0,0,0-1.642,6.9,9.3,9.3,0,0,0,1.179,4.841,10.236,10.236,0,0,0,3.115,3.284,17.408,17.408,0,0,0,4.42,2.1q2.484.8,5.094,1.389A71.46,71.46,0,0,1,289.9-59.4q3.578,1.347,3.578,4.042a4.424,4.424,0,0,1-.758,2.652,5.742,5.742,0,0,1-1.894,1.684,9.022,9.022,0,0,1-2.526.926,12.789,12.789,0,0,1-2.652.295,13.676,13.676,0,0,1-3.41-.421,8.845,8.845,0,0,1-2.9-1.305A6.989,6.989,0,0,1,277.27-53.8,6.557,6.557,0,0,1,276.47-57.129Z" transform="translate(376 769)" fill="#333"/>
    <path id="Path_46" data-name="Path 46" d="M35.8-68.9H16.216a13.819,13.819,0,0,1,.551-2.883,8.851,8.851,0,0,1,1.611-3.052,9.12,9.12,0,0,1,3.052-2.416,10.474,10.474,0,0,1,4.79-.975q4.409,0,6.571,2.374A13.915,13.915,0,0,1,35.8-68.9ZM16.216-61.27H47.842a30.947,30.947,0,0,0-.848-9.751,23.866,23.866,0,0,0-3.858-8.309,19.46,19.46,0,0,0-6.825-5.808A20.844,20.844,0,0,0,26.56-87.3a22.7,22.7,0,0,0-9.115,1.781,21.55,21.55,0,0,0-7.08,4.875A21.489,21.489,0,0,0,5.787-73.31a25.566,25.566,0,0,0-1.611,9.157,26.69,26.69,0,0,0,1.569,9.327A21.18,21.18,0,0,0,10.2-47.535a19.392,19.392,0,0,0,7.037,4.706,25.036,25.036,0,0,0,9.327,1.653,22.961,22.961,0,0,0,12.718-3.392q5.257-3.392,7.8-11.277H36.48a7.562,7.562,0,0,1-3.222,3.858,10.733,10.733,0,0,1-6.274,1.823q-5.087,0-7.8-2.628T16.216-61.27ZM87.1-64.153A23.059,23.059,0,0,1,86.5-58.9,13.955,13.955,0,0,1,84.639-54.4a9.77,9.77,0,0,1-3.18,3.095,8.824,8.824,0,0,1-4.621,1.145,8.88,8.88,0,0,1-4.579-1.145A9.627,9.627,0,0,1,69.038-54.4,13.955,13.955,0,0,1,67.173-58.9a23.059,23.059,0,0,1-.594-5.257,23.441,23.441,0,0,1,.594-5.342,13.955,13.955,0,0,1,1.865-4.494,9.627,9.627,0,0,1,3.222-3.095,8.88,8.88,0,0,1,4.579-1.145,8.824,8.824,0,0,1,4.621,1.145,9.77,9.77,0,0,1,3.18,3.095A13.955,13.955,0,0,1,86.5-69.495,23.441,23.441,0,0,1,87.1-64.153ZM54.964-102.816v60.538H66.41v-5.6h.17A10.977,10.977,0,0,0,72.345-42.7a23.127,23.127,0,0,0,8.648,1.526,16.688,16.688,0,0,0,6.529-1.357,16.716,16.716,0,0,0,5.808-4.155,21.244,21.244,0,0,0,4.2-7.165,30.036,30.036,0,0,0,1.611-10.386,30.036,30.036,0,0,0-1.611-10.386,21.243,21.243,0,0,0-4.2-7.165,16.716,16.716,0,0,0-5.808-4.155A16.688,16.688,0,0,0,80.993-87.3a20.237,20.237,0,0,0-7.843,1.569,12.846,12.846,0,0,0-5.978,4.96H67v-22.045Z" transform="translate(468.37 837.773)" fill="#36a2a2"/>
    <g id="Group_1" data-name="Group 1" transform="translate(389.489 735.236)">
      <path id="Path_40" data-name="Path 40" d="M-1195.867,201.535a6.847,6.847,0,0,1-3.46-.95,6.819,6.819,0,0,1-2.517-2.573l-5.08-11.338h22.115l-5.081,11.338a6.427,6.427,0,0,1-1.131,1.519A6.907,6.907,0,0,1-1195.867,201.535Z" transform="translate(1227.857 -139.957)" fill="#333"/>
      <path id="Path_42" data-name="Path 42" d="M-1195.867,201.535a6.847,6.847,0,0,1-3.46-.95,6.819,6.819,0,0,1-2.517-2.573l-5.08-11.338h22.115l-5.081,11.338a6.427,6.427,0,0,1-1.131,1.519A6.907,6.907,0,0,1-1195.867,201.535Z" transform="translate(1254.714 -139.957)" fill="#333"/>
      <path id="Path_41" data-name="Path 41" d="M-1197.054,148.75h-26.864l-18.558-41.417h13.983l12.03,24.448a6.817,6.817,0,0,0,2.517,2.573,6.847,6.847,0,0,0,3.46.95,6.908,6.908,0,0,0,4.846-2,6.436,6.436,0,0,0,1.131-1.519l7.455-11.542,4.575,17.466-4.575,11.046Z" transform="translate(1242.476 -107.332)" fill="#1e8080"/>
      <path id="Path_43" data-name="Path 43" d="M-1197.054,148.75h-26.864l-18.558-41.417h13.983l12.03,24.448a6.817,6.817,0,0,0,2.517,2.573,6.847,6.847,0,0,0,3.46.95,6.908,6.908,0,0,0,4.846-2,6.436,6.436,0,0,0,1.131-1.519l12.03-24.448h13.984l-18.559,41.417Z" transform="translate(1269.332 -107.332)" fill="#36a2a2"/>
    </g>
  </g>
</svg>
